<?xml version="1.0" encoding="UTF-8" standalone="no"?><!DOCTYPE svg PUBLIC "-//W3C//DTD SVG 1.1//EN" "http://www.w3.org/Graphics/SVG/1.1/DTD/svg11.dtd"><svg width="100%" height="100%" viewBox="0 0 3346 1038" version="1.1" xmlns="http://www.w3.org/2000/svg" xmlns:xlink="http://www.w3.org/1999/xlink" xml:space="preserve" xmlns:serif="http://www.serif.com/" style="fill-rule:evenodd;clip-rule:evenodd;stroke-miterlimit:10;"><rect id="Página-2" serif:id="Página 2" x="0" y="0" width="3345.833" height="1037.5" style="fill:none;"/><clipPath id="_clip1"><rect x="0" y="0" width="3345.833" height="1037.5"/></clipPath><g clip-path="url(#_clip1)"><g id="Capa-1" serif:id="Capa 1"><path d="M88.725,536.748c0,256.582 208.313,464.894 464.896,464.894c256.583,0 464.896,-208.312 464.896,-464.894c0,-256.582 -208.313,-464.894 -464.896,-464.894c-256.583,0 -464.896,208.312 -464.896,464.894Z" style="fill:url(#_Linear2);"/><path d="M1018.514,536.747c0,-256.583 -208.312,-464.896 -464.894,-464.896c-256.582,0 -464.894,208.313 -464.894,464.896c0,256.583 208.312,464.896 464.894,464.896c256.582,0 464.894,-208.313 464.894,-464.896Z" style="fill:none;stroke:#000;stroke-width:25px;"/><path d="M565.521,50.6c-60.717,4.683 -115.025,15.046 -161.863,27.388c-23.783,16.712 -44.987,36.692 -63.037,59.242c-9.15,-6.992 -20.113,-11.833 -32.046,-13.733c-3.792,-0.621 -7.712,-0.954 -11.675,-0.954c-38.117,0 -69.233,29.208 -71.383,66.108c-0.083,1.329 -0.125,2.692 -0.125,4.058c0,33.633 24.154,61.762 56.412,68.55c0,0 0,0.042 -0.042,0.083c-0.842,1.075 -11.129,14.438 -24.833,32.721c-24.454,32.6 -59.829,80.796 -71.929,102.558c-19.187,34.458 -77.287,162.504 -84.667,188.896c-2.442,8.687 -5.017,17.996 -7.337,26.6c42.504,218.021 237.883,382.758 472.525,382.758c82.596,0 160.304,-20.396 228.188,-56.35c18.3,-50.717 28.204,-105.283 28.204,-162.125c0,-57.204 -10.325,-102.221 -16.538,-125.125c-6.154,-22.717 -13.071,-41.496 -18.754,-55.383c25.792,-6.354 68.067,-20.242 111.038,-52.538c18.854,-14.171 66.454,-50.9 94.25,-118.025c22.975,-55.492 20.763,-103.613 19.108,-132.562c-5.175,-90.638 -44.525,-157.967 -68.729,-192.458c-73.7,-25.471 -179.725,-52.383 -307.246,-52.383c-22.517,0 -45.721,0.842 -69.521,2.675Z" style="fill:url(#_Linear3);fill-rule:nonzero;"/><path d="M786.623,595.893c5.683,13.887 12.596,32.667 18.75,55.383c6.212,22.908 16.542,67.921 16.542,125.121c0,56.846 -9.908,111.413 -28.208,162.129c-67.883,35.954 -145.587,56.35 -228.183,56.35c-234.642,0 -430.025,-164.738 -472.525,-382.758c2.317,-8.604 4.892,-17.912 7.338,-26.6c7.379,-26.396 65.479,-154.438 84.662,-188.896c12.1,-21.763 47.475,-69.958 71.929,-102.558c13.704,-18.287 23.992,-31.65 24.833,-32.721c0.042,-0.046 0.042,-0.087 0.042,-0.087c-32.254,-6.783 -56.412,-34.912 -56.412,-68.55c0,-1.362 0.042,-2.729 0.125,-4.054c2.154,-36.9 33.267,-66.108 71.383,-66.108c3.963,0 7.883,0.333 11.679,0.954c11.933,1.9 22.896,6.742 32.042,13.733c18.05,-22.546 39.254,-42.529 63.038,-59.242c46.842,-12.342 101.146,-22.708 161.867,-27.387c158.558,-12.229 290.05,19.742 376.767,49.708c24.2,34.492 63.55,101.821 68.725,192.458c1.654,28.95 3.871,77.071 -19.104,132.562c-27.796,67.129 -75.4,103.854 -94.254,118.025c-42.971,32.296 -85.246,46.179 -111.033,52.538Z" style="fill:none;fill-rule:nonzero;stroke:#000;stroke-width:25px;"/><path d="M517.54,189.892c-14.25,20.25 -37.792,33.458 -64.417,33.458c-17.667,0 -34,-5.833 -47.125,-15.625c14.292,-20.208 37.833,-33.417 64.458,-33.417c17.625,0 33.958,5.792 47.083,15.583Z" style="fill:none;fill-rule:nonzero;stroke:#000;stroke-width:12.5px;"/><path d="M517.54,189.892c-14.25,20.25 -37.792,33.458 -64.417,33.458c-17.667,0 -34,-5.833 -47.125,-15.625c14.292,-20.208 37.833,-33.417 64.458,-33.417c17.625,0 33.958,5.792 47.083,15.583Z" style="fill:#fff;fill-rule:nonzero;"/><path d="M517.54,189.892c-14.25,20.25 -37.792,33.458 -64.417,33.458c-17.667,0 -34,-5.833 -47.125,-15.625c14.292,-20.208 37.833,-33.417 64.458,-33.417c17.625,0 33.958,5.792 47.083,15.583Z" style="fill:none;fill-rule:nonzero;stroke:#000;stroke-width:12.5px;"/><path d="M777.787,587.231c-57.729,12.533 -118.267,7.142 -173.05,-14.888c-11,-4.421 -21.675,-9.671 -32.042,-15.408c-11.742,-6.5 -22.258,11.487 -10.517,17.987c53.138,29.417 114.454,43.458 175.108,39.05c15.471,-1.125 30.883,-3.363 46.038,-6.654c13.096,-2.842 7.554,-22.933 -5.538,-20.087" style="fill-rule:nonzero;"/><path d="M954.045,388.44c-10.625,51.025 -40.888,97.121 -84.008,126.55c-8.258,5.633 -0.45,19.179 7.887,13.487c46.383,-31.65 79.721,-80.821 91.188,-135.883c2.042,-9.812 -13.017,-14.008 -15.067,-4.154" style="fill-rule:nonzero;"/><path d="M958.427,387.773c-10.742,29.554 -13.054,61.446 -7.404,92.325c0.758,4.154 5.796,6.504 9.608,5.458c4.367,-1.2 6.217,-5.446 5.454,-9.608c-5.15,-28.163 -2.35,-57.167 7.408,-84.021c1.442,-3.967 -1.617,-8.558 -5.454,-9.612c-4.35,-1.192 -8.167,1.475 -9.612,5.458" style="fill-rule:nonzero;"/><path d="M942.979,192.261c0.275,3.008 0.342,6.029 0.146,9.046c-0.042,0.6 -0.088,1.204 -0.146,1.804c-0.042,0.462 -0.092,3.075 -0.087,0.921c0,1.338 -0.483,2.867 -0.775,4.154c-0.613,2.75 -1.433,5.454 -2.442,8.088c-0.146,0.375 -0.296,0.746 -0.446,1.121c0.4,-0.938 0.425,-1.004 0.075,-0.2c-0.258,0.546 -0.5,1.096 -0.767,1.638c-0.704,1.454 -1.475,2.862 -2.292,4.25c-2.079,3.525 -0.917,8.725 2.8,10.692c3.758,1.983 8.471,0.958 10.692,-2.804c6.817,-11.554 10.096,-25.325 8.867,-38.708c-0.371,-4.058 -3.325,-8.012 -7.812,-7.812c-3.913,0.175 -8.212,3.454 -7.812,7.812" style="fill-rule:nonzero;"/><text x="1133.002px" y="640.965px" style="font-family:'ContrailOne-Regular', 'Contrail One';font-size:300px;">Ca<tspan x="1415.558px 1570.166px 1707.929px 1863.269px 2017.731px 2134.107px 2288.569px 2350.174px 2454.831px 2564.029px 2720.395px 2873.539px 2953.586px " y="640.965px 640.965px 640.965px 640.965px 640.965px 640.965px 640.965px 640.965px 640.965px 640.965px 640.965px 640.965px 640.965px ">pybara Studio</tspan>s</text></g></g><defs><linearGradient id="_Linear2" x1="0" y1="0" x2="1" y2="0" gradientUnits="userSpaceOnUse" gradientTransform="matrix(0,929.788399,-929.788399,0,553.62072,71.85332)"><stop offset="0" style="stop-color:#68bc97;stop-opacity:1"/><stop offset="0.48" style="stop-color:#66b99a;stop-opacity:1"/><stop offset="0.78" style="stop-color:#4184c5;stop-opacity:1"/><stop offset="1" style="stop-color:#4184c5;stop-opacity:1"/></linearGradient><linearGradient id="_Linear3" x1="0" y1="0" x2="1" y2="0" gradientUnits="userSpaceOnUse" gradientTransform="matrix(0,946.949005,-946.949005,0,552.484894,47.925186)"><stop offset="0" style="stop-color:#eecf11;stop-opacity:1"/><stop offset="1" style="stop-color:#e53b16;stop-opacity:1"/></linearGradient></defs></svg>